# xmcd
#
# Track frame offsets: 
#        150
#        37223
#        80637
#        94703
#        103566
#        114541
#        154313
#        189994
#        211856
#        256262
#        285693
#
# Disc length: 4440 seconds
#
# Revision: 0
# Processed by: cddbd v1.5.2PL0 Copyright (c) Steve Scherf et al.
# Submitted via: ExactAudioCopy v0.99pb4
#
DISCID=9511560b
DTITLE=Various Artist - Classica n°24: Festival Pablo Casals De Prades 1950-2
DTITLE=000
DYEAR=1900
DGENRE=Classical
TTITLE0=Bach: Suite N°1
TTITLE1=Mozart: Concerto Jeunehomme: Rondo Presto
TTITLE2=Schubert: "An Die Musik"
TTITLE3=Schubert: Lachen Und Weinen
TTITLE4=Schubert: Mein!
TTITLE5=Beethoven: Sonate Our Violoncelle Et Piano: Adagio Cantabile. 
TTITLE5=Allegro Vivace
TTITLE6=Beethoven: Spetuor Pour Vents Et Cordes Op 20: Andante Con Mot
TTITLE6=o Alla Marcia
TTITLE7=Mozart: Sonate Pour Piano En Fa Majeur K.332: Adagio
TTITLE8=Brahms: Sextuor À Cordes N°1 Op 18 Rondo Poco Allegro E Grazio
TTITLE8=so
TTITLE9=Schubert: Octuor En Fa Majeur Op 166: Minuetto Allegretto
TTITLE10=Mozart: Grand Sextuor Concertant
EXTD=
EXTT0=
EXTT1=
EXTT2=
EXTT3=
EXTT4=
EXTT5=
EXTT6=
EXTT7=
EXTT8=
EXTT9=
EXTT10=
PLAYORDER=
